HIERARCHY
ROOT root
{
	OFFSET 0.000000 0.000000 0.000000
	CHANNELS 6 Xposition Yposition Zposition Zrotation Yrotation Xrotation
	JOINT lhip
	{
		OFFSET 0.058581 -0.082280 -0.017664
		CHANNELS 3 Zrotation Yrotation Xrotation
		JOINT lknee
		{
			OFFSET 0.043451 -0.386469 0.008037
			CHANNELS 3 Zrotation Yrotation Xrotation
			JOINT lankle
			{
				OFFSET -0.014790 -0.426874 -0.037428
				CHANNELS 3 Zrotation Yrotation Xrotation
				JOINT ltoe
				{
					OFFSET 0.041054 -0.060286 0.122042
					CHANNELS 3 Zrotation Yrotation Xrotation
					End Site
					{
						OFFSET 0.000000 0.000000 0.000000
					}
				}
			}
		}
	}
	JOINT rhip
	{
		OFFSET -0.060310 -0.090513 -0.013543
		CHANNELS 3 Zrotation Yrotation Xrotation
		JOINT rknee
		{
			OFFSET -0.043257 -0.383688 -0.004843
			CHANNELS 3 Zrotation Yrotation Xrotation
			JOINT rankle
			{
				OFFSET 0.019056 -0.420046 -0.034562
				CHANNELS 3 Zrotation Yrotation Xrotation
				JOINT rtoe
				{
					OFFSET -0.034840 -0.062106 0.130323
					CHANNELS 3 Zrotation Yrotation Xrotation
					End Site
					{
						OFFSET 0.000000 0.000000 0.000000
					}
				}
			}
		}
	}
	JOINT lowerback
	{
		OFFSET 0.004439 0.124404 -0.038385
		CHANNELS 3 Zrotation Yrotation Xrotation
		JOINT upperback
		{
			OFFSET 0.004488 0.137956 0.026820
			CHANNELS 3 Zrotation Yrotation Xrotation
			JOINT chest
			{
				OFFSET -0.002265 0.056032 0.002855
				CHANNELS 3 Zrotation Yrotation Xrotation
				JOINT lowerneck
				{
					OFFSET -0.013390 0.211636 -0.033468
					CHANNELS 3 Zrotation Yrotation Xrotation
					JOINT upperneck
					{
						OFFSET 0.010113 0.088937 0.050410
						CHANNELS 3 Zrotation Yrotation Xrotation
						End Site
						{
							OFFSET 0.000000 0.000000 0.000000
						}
					}
				}
				JOINT lclavicle
				{
					OFFSET 0.071702 0.114000 -0.018898
					CHANNELS 3 Zrotation Yrotation Xrotation
					JOINT lshoulder
					{
						OFFSET 0.122921 0.045205 -0.019046
						CHANNELS 3 Zrotation Yrotation Xrotation
						JOINT lelbow
						{
							OFFSET 0.255332 -0.015649 -0.022946
							CHANNELS 3 Zrotation Yrotation Xrotation
							JOINT lwrist
							{
								OFFSET 0.265709 0.012698 -0.007375
								CHANNELS 3 Zrotation Yrotation Xrotation
								End Site
								{
									OFFSET 0.000000 0.000000 0.000000
								}
							}
						}
					}
				}
				JOINT rclavicle
				{
					OFFSET -0.082954 0.112472 -0.023707
					CHANNELS 3 Zrotation Yrotation Xrotation
					JOINT rshoulder
					{
						OFFSET -0.113228 0.046853 -0.008472
						CHANNELS 3 Zrotation Yrotation Xrotation
						JOINT relbow
						{
							OFFSET -0.260127 -0.014369 -0.031269
							CHANNELS 3 Zrotation Yrotation Xrotation
							JOINT rwrist
							{
								OFFSET -0.269108 0.006794 -0.006027
								CHANNELS 3 Zrotation Yrotation Xrotation
								End Site
								{
									OFFSET 0.000000 0.000000 0.000000
								}
							}
						}
					}
				}
			}
		}
	}
}
MOTION
Frames: 13
Frame Time: 0.033333
1.614213 0.326797 0.980243 -98.170813 0.741447 90.590401 5.980850 1.037460 -9.975386 -1.933544 -7.188362 0.330124 4.385064 8.990761 -2.025979 0.000000 -0.000000 0.000000 2.148858 -3.622581 1.954613 4.964409 0.100286 10.538493 -1.994352 -6.310210 -17.129754 0.000000 -0.000000 0.000000 -0.733362 5.638000 2.206775 1.014998 0.095942 0.322044 1.005100 0.160608 1.021478 -0.362660 -0.222903 4.416569 1.651515 -2.331054 3.083929 -25.219118 -4.790261 4.834259 -60.790471 -2.715874 18.436043 6.271563 -39.559205 33.440917 11.312731 0.589389 1.137896 21.348011 2.427308 2.996394 61.118488 -4.043680 13.913817 -10.131276 38.875359 23.666467 -10.317117 3.455523 -5.866438 
1.614532 0.326486 0.979255 -98.294389 0.631455 90.276041 5.993091 0.818070 -9.487988 -1.958595 -6.825619 -0.041165 4.237764 9.015432 -1.859862 0.000000 -0.000000 0.000000 1.964570 -3.392951 2.352582 5.036730 0.085357 10.394952 -1.365619 -6.385526 -17.296308 0.000000 -0.000000 0.000000 -0.641617 5.585719 2.194657 1.072645 -0.198051 1.881414 0.663978 0.544763 0.399512 -0.003550 0.123913 3.546511 1.535116 -2.813144 2.732162 -24.974973 -4.551000 4.523546 -60.918260 -2.851957 18.623087 6.163143 -40.523877 33.737985 11.524986 0.300275 1.512643 21.175099 2.681594 2.876617 61.422326 -3.738681 14.202644 -10.026519 38.765189 23.625217 -10.914853 2.839191 -6.365509 
1.614930 0.326040 0.978054 -98.225636 0.615051 89.950846 6.029413 0.936096 -9.185664 -2.018728 -6.635302 -0.227096 3.860461 8.668298 -1.765199 0.000000 -0.000000 0.000000 1.883658 -3.597726 2.622662 5.019506 -0.167614 10.444525 -1.582626 -6.023524 -17.392906 0.000000 -0.000000 0.000000 -0.290351 5.229643 2.286130 1.044002 -0.582598 3.436903 0.195604 0.932555 -0.196453 0.297256 0.672659 2.390162 1.402357 -3.247020 2.261523 -24.447520 -4.275884 3.800849 -61.445717 -2.736371 18.670547 5.956250 -41.029895 34.230432 11.108023 0.232910 1.654054 20.965665 2.919583 2.774929 61.930810 -3.231698 14.315731 -10.022177 38.235393 23.631848 -10.877195 2.602238 -6.288083 
1.614998 0.325831 0.977277 -98.055924 0.530500 89.753437 5.923166 1.026335 -8.993444 -2.018585 -6.661969 -0.338128 3.599118 8.449129 -1.730189 0.000000 -0.000000 0.000000 1.788959 -3.774938 2.830956 4.939427 -0.386398 10.443057 -1.667299 -5.822047 -17.475352 0.000000 -0.000000 0.000000 0.158141 4.764798 2.916097 0.915969 -0.861746 4.019084 0.010127 0.609141 -0.694438 -0.215417 1.247392 1.622064 1.274142 -2.920400 1.337179 -24.414597 -3.288000 2.619105 -61.574499 -1.855082 18.469559 5.055625 -41.269895 35.258951 10.935986 0.099257 1.345487 20.327758 3.264389 2.950646 62.607521 -2.861193 14.436891 -9.752708 37.443253 23.833006 -10.944630 2.515011 -5.721901 
1.614554 0.325887 0.977718 -97.959546 0.481890 89.864702 5.834737 0.919252 -9.015998 -1.950116 -6.728350 -0.495059 3.520383 8.559268 -1.615090 0.000000 -0.000000 0.000000 1.770526 -3.659149 2.848567 4.984340 -0.259951 10.214026 -1.507189 -6.114345 -17.320632 0.000000 -0.000000 0.000000 0.176256 4.743604 2.923272 0.825720 -0.805329 3.602987 -0.011608 0.613494 -0.791988 -0.103718 1.071170 1.778675 1.286827 -2.945218 2.254881 -24.421974 -3.435998 3.083159 -61.802302 -1.608610 18.527463 5.413577 -40.442794 34.994691 10.858129 -0.221240 1.169107 20.622724 3.315064 3.294987 62.440129 -3.359647 14.497963 -9.782861 37.042291 23.747129 -10.740903 2.623102 -5.838994 
1.614221 0.326280 0.977700 -97.853445 0.479962 89.885752 5.852078 0.888690 -9.035692 -1.975320 -6.777719 -0.486471 3.599186 8.540286 -1.598229 0.000000 -0.000000 0.000000 1.772484 -3.731489 2.911327 5.031858 -0.254758 10.107347 -1.614024 -6.112438 -17.253630 0.000000 -0.000000 0.000000 0.169463 4.794071 2.774269 0.854117 -0.858263 3.844583 0.064234 0.582728 -0.809781 -0.203400 0.875516 1.939771 1.384391 -2.872763 1.970925 -24.481256 -3.681704 3.266404 -62.200311 -1.393571 18.535462 5.966138 -39.373474 34.298699 10.670161 0.272801 0.700667 20.586281 3.426815 3.468140 62.415288 -3.660944 14.464166 -9.637632 36.562297 23.959925 -10.502351 2.518472 -6.091024 
1.613710 0.326844 0.977610 -97.739850 0.448657 89.902436 5.830964 0.904399 -9.059995 -1.991572 -6.825676 -0.459964 3.631120 8.474609 -1.610684 0.000000 -0.000000 0.000000 1.755132 -3.758739 3.011843 5.082517 -0.298279 9.943600 -1.684793 -6.129041 -17.167080 0.000000 -0.000000 0.000000 0.130584 4.826777 2.692207 0.885578 -0.945178 3.974203 0.118137 0.534889 -0.835045 -0.217742 0.838939 2.114448 1.428755 -2.654764 1.834225 -24.508156 -3.854643 3.365584 -62.502879 -1.043049 18.550833 6.407989 -37.963109 33.928270 10.678606 0.436089 0.643475 20.558976 3.422234 3.545903 62.375344 -3.903962 14.423196 -9.338581 35.986072 24.308586 -10.250723 2.543075 -6.182430 
1.613001 0.327630 0.977601 -97.673292 0.388917 89.896044 5.757456 0.932189 -9.037249 -1.960314 -6.926092 -0.428819 3.676357 8.516228 -1.588397 0.000000 -0.000000 0.000000 1.739661 -3.748531 3.109900 5.081183 -0.319728 9.804514 -1.697521 -6.164994 -16.987289 0.000000 -0.000000 0.000000 0.107427 4.779960 2.849558 0.855926 -0.974026 3.794560 0.145883 0.453692 -0.925069 -0.352423 0.821580 2.294095 1.512640 -2.370181 1.780267 -24.697979 -3.707410 3.417352 -62.499059 -0.631536 18.310317 6.729429 -36.767213 33.096457 10.595807 0.715198 0.357096 20.698948 3.337692 3.632520 62.169769 -4.065830 14.398041 -8.906399 35.225401 24.522571 -10.126002 2.581909 -6.206591 
1.612450 0.328555 0.977488 -97.614971 0.384962 89.806365 5.798211 0.912760 -8.953655 -1.995399 -7.006084 -0.367522 3.594463 8.639738 -1.641114 0.000000 -0.000000 0.000000 1.754347 -3.772102 3.221408 5.165332 -0.258201 9.772905 -1.669754 -6.224879 -16.944058 0.000000 -0.000000 0.000000 0.053736 4.848299 2.821681 0.885627 -1.011303 4.017227 0.176267 0.435312 -0.898485 -0.318722 0.745626 2.236357 1.434426 -2.499862 1.911440 -24.942263 -3.909551 3.593261 -62.288054 -0.398401 18.142445 7.097970 -35.640953 32.205584 10.859854 0.769022 0.509081 20.977362 3.434743 3.613146 61.891878 -4.213502 14.313053 -8.832574 34.604300 24.147089 -10.139763 2.593326 -6.312834 
1.611426 0.329500 0.977015 -97.687508 0.333599 89.729211 5.853376 0.948232 -8.861708 -2.074806 -6.932917 -0.268944 3.593095 8.615926 -1.787275 0.000000 -0.000000 0.000000 1.752752 -3.829936 3.348715 5.145675 -0.259952 9.812407 -1.718225 -6.046418 -16.970727 0.000000 -0.000000 0.000000 -0.026066 4.902707 2.806193 0.882889 -1.082917 4.356807 0.178697 0.476335 -0.780517 -0.331435 0.825802 2.085730 1.531900 -2.360506 1.174334 -24.739111 -3.727243 3.483326 -62.331315 -0.076553 17.917249 7.320955 -34.668818 32.003466 10.998185 0.518497 0.310197 20.649389 3.260140 3.371192 62.306158 -4.191516 14.183823 -8.772612 34.015291 24.204257 -10.058616 2.864364 -6.303977 
1.610433 0.330103 0.977187 -97.848366 0.264642 89.931642 5.828527 0.954540 -8.983202 -2.062255 -6.990099 -0.267993 3.586560 8.841829 -1.789212 0.000000 -0.000000 0.000000 1.762080 -3.695106 3.235269 5.140112 0.006084 9.717424 -1.523014 -6.218348 -16.872167 0.000000 -0.000000 0.000000 -0.011900 4.789887 2.977442 0.723151 -0.958759 3.667677 0.113781 0.541427 -0.839700 -0.271936 0.746406 2.268070 1.523748 -2.352677 1.827630 -24.532108 -3.172714 3.599777 -62.235118 0.333634 17.556535 7.304123 -34.548165 31.708742 10.314158 0.658958 -0.265522 20.665580 2.960270 3.593862 62.479533 -4.460904 14.284761 -8.879683 33.938273 24.071003 -9.828879 2.826884 -6.281173 
1.609663 0.330755 0.977174 -97.927930 0.228853 89.941659 5.818098 1.033209 -9.006547 -2.067769 -7.068755 -0.101632 3.603101 8.919940 -1.890910 0.000000 -0.000000 0.000000 1.762514 -3.733294 3.282755 5.136957 0.146206 9.719454 -1.481153 -6.270490 -16.900638 0.000000 -0.000000 0.000000 -0.041774 4.839377 3.048421 0.706252 -0.913045 3.605403 0.124281 0.469983 -0.846857 -0.293884 0.736973 2.398751 1.544964 -2.338577 1.717757 -24.433407 -2.908619 3.549356 -61.936158 0.678467 17.432778 7.061231 -34.287386 32.181869 10.430003 0.755134 0.059335 20.576806 2.823730 3.638888 62.502207 -4.561637 14.199433 -8.853172 33.928784 24.083443 -9.969054 2.715676 -6.239364 
1.608832 0.331307 0.977184 -97.913381 0.205125 89.952893 5.823278 1.005039 -8.967818 -2.075079 -7.144526 -0.079300 3.655170 9.005327 -1.947337 0.000000 -0.000000 0.000000 1.775708 -3.734950 3.389179 5.156252 0.228062 9.600062 -1.503238 -6.355436 -16.876655 0.000000 -0.000000 0.000000 -0.077522 4.881627 3.039318 0.711049 -0.916223 3.640983 0.136057 0.425796 -0.858594 -0.285178 0.760956 2.424609 1.559036 -2.331904 1.624486 -24.429606 -2.822739 3.615613 -61.678885 0.848295 17.262457 7.094262 -34.077233 32.068074 10.424750 0.858883 0.209154 20.599064 2.768937 3.644574 62.370224 -4.627578 14.136382 -8.797759 33.865596 24.055216 -10.179617 2.732498 -6.166428 
